<svg id="Layer_2" data-name="Layer 2" xmlns="http://www.w3.org/2000/svg" viewBox="0 0 484.99 473.61"><defs><style>.cls-1{fill:#ff3b31;}</style></defs><path class="cls-1" d="M547.11,246.63,332.26,606.56l-.78-.38Q383.57,440,435.71,273.73,395,246.3,354.22,218.93a10.51,10.51,0,0,0-5.52-1.49q-44-.13-87.93,0a12.22,12.22,0,0,0-6.31,2c-27,18-53.89,36-81,54.2Q225.59,439.83,277.7,606l-.79.43Q169.59,426.65,62.12,246.62c13.57-9.12,27-18.18,40.43-27.18Q145,191,187.47,162.71c13.74-9.2,27.38-18.56,41.18-27.69a12.14,12.14,0,0,1,6.3-2q69.56-.17,139.1,0a13,13,0,0,1,6.74,2.15q60.72,40.47,121.29,81.14C516.89,226.25,531.66,236.23,547.11,246.63Z" transform="translate(-62.12 -132.95)"/><path class="cls-1" d="M208.19,286.31c16.54-11.43,33.15-22.48,49.24-34.23,6.36-4.64,12.75-6.17,20.42-6,20,.39,40.06,0,60.09.26a17.58,17.58,0,0,1,8.94,2.86c18.39,12.14,36.6,24.55,55.13,37.05q-6,19.21-12,38.29-13.6,43.23-27.23,86.44-13.46,42.76-26.9,85.54-10.73,34.23-21.4,68.47a297.07,297.07,0,0,1-9.92,28.27Q256.41,439.86,208.19,286.31Z" transform="translate(-62.12 -132.95)"/></svg>