<svg id="Layer_2" data-name="Layer 2" xmlns="http://www.w3.org/2000/svg" viewBox="0 0 243.88 238.16"><defs><style>.cls-1{fill:#a8ff00;}</style></defs><path class="cls-1" d="M306,190.11l-108,181-.39-.19L250,203.74q-20.47-13.8-41-27.56a5.3,5.3,0,0,0-2.77-.74q-22.11-.08-44.22,0a6.09,6.09,0,0,0-3.17,1c-13.57,9-27.1,18.13-40.71,27.25q26.19,83.57,52.4,167.14l-.4.21-108-180.94c6.82-4.59,13.56-9.15,20.33-13.67q21.35-14.28,42.7-28.53c6.91-4.62,13.77-9.33,20.71-13.92a6.09,6.09,0,0,1,3.17-1q35-.09,69.95,0a6.51,6.51,0,0,1,3.38,1.09q30.54,20.34,61,40.8C290.8,179.87,298.23,184.88,306,190.11Z" transform="translate(-62.12 -132.95)"/><path class="cls-1" d="M135.57,210.07c8.32-5.75,16.67-11.31,24.76-17.21a15.79,15.79,0,0,1,10.27-3c10.07.2,20.15,0,30.22.13a8.84,8.84,0,0,1,4.49,1.44c9.25,6.11,18.41,12.35,27.73,18.63-2,6.44-4,12.85-6,19.26q-6.82,21.74-13.69,43.47-6.76,21.5-13.52,43Q194.4,333,189,350.19a148.83,148.83,0,0,1-5,14.22Q159.82,287.28,135.57,210.07Z" transform="translate(-62.12 -132.95)"/></svg>